<svg width="80" height="80" viewBox="0 0 80 80" fill="none" xmlns="http://www.w3.org/2000/svg">
  <!-- Shield background -->
  <path d="M40 5L70 15V35C70 55 40 75 40 75C40 75 10 55 10 35V15L40 5Z" fill="#1a365d" stroke="#2d3748" stroke-width="2"/>
  
  <!-- Inner shield -->
  <path d="M40 12L60 20V32C60 48 40 65 40 65C40 65 20 48 20 32V20L40 12Z" fill="#2b6cb0"/>
  
  <!-- Book symbol -->
  <rect x="32" y="25" width="16" height="12" fill="#ffffff" rx="1"/>
  <line x1="35" y1="28" x2="45" y2="28" stroke="#1a365d" stroke-width="1"/>
  <line x1="35" y1="31" x2="45" y2="31" stroke="#1a365d" stroke-width="1"/>
  <line x1="35" y1="34" x2="42" y2="34" stroke="#1a365d" stroke-width="1"/>
  
  <!-- Torch/flame -->
  <path d="M40 40L38 45L42 45L40 40Z" fill="#f6ad55"/>
  <ellipse cx="40" cy="47" rx="3" ry="2" fill="#ed8936"/>
  
  <!-- Stars -->
  <polygon points="25,22 26,24 28,24 26.5,25.5 27,27 25,26 23,27 23.5,25.5 22,24 24,24" fill="#ffd700"/>
  <polygon points="55,22 56,24 58,24 56.5,25.5 57,27 55,26 53,27 53.5,25.5 52,24 54,24" fill="#ffd700"/>
</svg>